<svg xmlns="http://www.w3.org/2000/svg" version="1.1" xmlns:xlink="http://www.w3.org/1999/xlink" xmlns:svgjs="http://svgjs.dev/svgjs" width="1000" height="1125" viewBox="0 0 1000 1125"><g transform="matrix(1,0,0,1,1.7053025658242404e-13,0)"><svg viewBox="0 0 320 360" data-background-color="#ffffff" preserveAspectRatio="xMidYMid meet" height="1125" width="1000" xmlns="http://www.w3.org/2000/svg" xmlns:xlink="http://www.w3.org/1999/xlink"><g id="tight-bounds" transform="matrix(1,0,0,1,0,0)"><svg viewBox="0 0 320 360" height="360" width="320"><g><svg></svg></g><g><svg viewBox="0 0 320 360" height="360" width="320"><g><path xmlns="http://www.w3.org/2000/svg" d="M20.961 227.22l3.726 4.658-1.863-6.056c-0.466-2.795-3.726 0.466-1.863 1.398M25.153 224.425c1.397 2.329 2.795 4.658 2.795 6.987 0 3.261 2.795 4.658 5.123 5.589-3.261-3.726-5.124-13.974-7.918-12.576M204.017 26.929c7.918 0 15.371-0.932 23.756 0.931 20.495 5.124 37.729 15.371 49.374 29.811l32.606 52.169c1.397 13.042 4.192 27.482 3.726 43.319 3.261 0 2.795-4.658 6.521-5.59-3.726 9.316-5.59 20.961-6.521 34.469-2.329-7.453 0-18.632 0.466-24.687-3.261 5.124-5.124 1.397-5.124-0.932 0.466-3.726-1.397-3.261-2.795-4.658-5.124-4.658-8.384-9.782-12.11-17.7 2.329-6.055 2.795-14.905-4.658-19.563-2.329-1.397-5.124-3.726-6.521-7.453-1.863-5.124-5.124-11.179-4.193-19.097 0.466-2.329-6.987 5.124-11.179 1.863-18.166-12.576-36.332-27.016-58.224-39.127-11.645 0-20.029-4.192-24.221-9.316-3.726-4.658-0.932-10.713 4.658-11.179 3.261 0 6.987-0.932 9.782 0.932 0.466-1.863 2.329-4.192 4.657-4.192M157.904 16.215l0.932 0.466c4.658 0.932 6.987 7.453 12.11 5.124 0 3.261 0.466 6.521-0.466 8.85-1.397 3.726-5.59 3.726-8.85 3.726-31.208-1.863-49.374 11.179-68.471 22.358-5.124 3.261-10.713 5.59-14.906 9.782-20.029 18.632-41.921 35.866-47.045 70.335l-4.192 38.195c-0.466 4.192-5.124 8.384-4.192 13.508l3.26 22.824c-3.261-3.261-5.124 0.932-4.192 2.795 0.466 1.397 2.329 6.055 5.124 1.863 3.726 6.987 7.453 20.495 12.576 26.55 15.837 18.632 36.332 35.4 53.101 52.169 4.192-0.932 7.453-0.932 8.384-3.727 1.397 2.795-1.397 5.59-3.726 6.056 7.453 4.658 15.837 8.85 27.016 9.781 14.44 0.932 27.948 3.261 40.524 6.522 6.521-1.863 13.042-2.795 20.029-3.261 2.329 0 3.726-3.726 6.521-4.658l0.466-4.658c2.795 4.192 2.329-1.397 0.466-4.192 3.261 2.795 4.192 5.124 5.589 6.987 0-1.397 3.726-6.521 3.727-0.466l0.931-6.055c1.397-0.932 1.863 5.124 3.261 0.931 1.397-4.192 4.192-0.932 6.987-2.329-0.932 1.863-0.466 5.59 2.794 3.261l3.727-3.261c2.329 5.59 6.055 3.261 7.918 2.329 20.495-13.042 40.99-28.413 60.553-43.784l-0.466 6.055 2.329-7.453c2.329 2.329 4.192 0.466 5.124-0.931 2.795-4.658 6.521-9.316 12.577-13.508-7.453 20.029-16.303 35.866-27.482 48.908l-4.658 5.59c0 3.261-0.932 7.453-4.658 7.918-1.863 0.466-5.59-0.932-8.384 1.863-1.397 1.863 3.261 5.59-0.466 2.795-3.261-2.329-6.521 0-10.248 0.932-2.795 0.932 1.863 3.726 2.795 5.589 0.932 1.863 1.863 3.726 1.398 6.056l-5.124-5.59c-6.055 3.261-9.782 9.316-14.906 13.974-2.329 1.863-1.397 5.124-1.397 7.918-3.261 0-6.987-0.932-8.85 0.932-1.397 1.863-0.932 4.658-0.932 7.453-4.658-0.466-5.124-7.453-9.315-6.056-4.192 0.932-8.85 1.397-12.577 3.727 2.795 5.59-4.658 2.329-3.726 3.26-6.987-4.192-13.042-7.453-20.495-4.658-15.837-5.124-35.4-2.795-49.84-0.931 0-2.329 0.466-4.658-0.466-5.124-0.932 2.329-3.726 1.397-3.26 1.397-8.85-6.055-17.7-9.782-27.016-14.905-8.384 0.932-16.303-3.261-18.632-5.59-6.521-6.055-13.974-2.795-20.029-4.192-13.042-3.261-17.7-16.769-19.098-26.084-0.932-4.658-4.658-6.521-6.055-6.056-6.055-19.563-15.371-37.263-22.824-55.429-1.863-4.658-1.397-9.316-1.397-14.44 2.329 0.932 4.658 0.466 4.192-2.794-2.329-15.371-7.918-27.016-13.974-38.195 3.261-15.837 3.726-34.469 11.179-48.443 6.521-12.576 18.632-19.098 27.016-29.811 2.795-3.726 2.795-8.85 5.59-12.11 9.316-9.316 18.632-19.098 28.879-27.482 4.658-3.726 10.247 0 17.234-1.397 2.329-8.384 11.645-15.837 20.495-13.508 3.726 0.932 11.179-8.85 13.508-9.782 3.726-1.397 1.863 3.726 1.863 6.987 8.85-6.987 20.961-10.713 32.14-14.906" fill="#ba3b0a" fill-rule="nonzero" stroke="none" stroke-width="1" stroke-linecap="butt" stroke-linejoin="miter" stroke-miterlimit="10" stroke-dasharray="" stroke-dashoffset="0" font-family="none" font-weight="none" font-size="none" text-anchor="none" style="mix-blend-mode: normal" data-fill-palette-color="tertiary"></path></g><g transform="matrix(1,0,0,1,64,156.71791612632958)"><svg viewBox="0 0 192 46.564167747340846" height="46.564167747340846" width="192"><g><svg viewBox="0 0 192 46.564167747340846" height="46.564167747340846" width="192"><g><svg viewBox="0 0 192 46.564167747340846" height="46.564167747340846" width="192"><g transform="matrix(1,0,0,1,0,27.671945909060394)"><svg viewBox="0 0 192 18.892221838280452" height="18.892221838280452" width="192"><g id="textblocktransform"><svg viewBox="0 0 192 18.892221838280452" height="18.892221838280452" width="192" id="textblock"><g><svg viewBox="0 0 192 10.710337768679633" height="10.710337768679633" width="192"><g transform="matrix(1,0,0,1,0,0)"><svg width="192" viewBox="1.7999999523162842 -26.149999618530273 488.4700012207031 27.25" height="10.710337768679633" data-palette-color="#ba3b0a"><path d="M32.85-22.7L32.85-22.7Q32.85-24.05 32.45-25L32.45-25 46.7-25Q48.5-20.2 49.38-13.25 50.25-6.3 50.3 0L50.3 0 38.75 0Q38.4-9 35.8-17.35L35.8-17.35Q31.45-8.85 31.1 0L31.1 0 21.3 0Q20-9.8 16.3-17.4L16.3-17.4Q13.6-11.05 13.6-5.6L13.6-5.6Q13.6-2.65 14.3 0L14.3 0 2.15 0Q1.8-2.05 1.8-5.43 1.8-8.8 2.8-12.2L2.8-12.2Q6.35-13.25 9.63-15.65 12.9-18.05 14.45-20.9L14.45-20.9Q13.15-23.05 11.7-25L11.7-25 27.5-25Q29.4-19.85 30.35-13.8L30.35-13.8Q32.85-18.45 32.85-22.7ZM56.15-25L69.65-25 69.65-23.65Q69.65-10.45 68 0L68 0 56 0Q56.95-4.6 56.95-10.63 56.95-16.65 56.15-25L56.15-25ZM103.5-16.3L103.5-16.3 103.45-14.6Q99.45-12.45 93.45-11.25L93.45-11.25Q97.75-10.1 101.75-10.1L101.75-10.1 102.8-10.1Q105.55-6.05 106.35 0L106.35 0 93.4 0Q92.9-3.5 91.37-6.03 89.85-8.55 87.65-9.45L87.65-9.45Q87.6-8.6 87.6-6.05 87.6-3.5 87.9 0L87.9 0 77 0Q75.55-7.25 75.55-13.48 75.55-19.7 76.25-25L76.25-25 102.35-25Q103.5-19.95 103.5-16.3ZM88.7-21.65L88.7-21.65Q88.1-17.25 87.8-13L87.8-13Q90.55-13.4 92.3-14.95L92.3-14.95Q91.35-18.3 88.7-21.65ZM142.19-0.4L142.19-0.4 142.19 0 130.59 0Q130.39-2.85 129.74-5.9L129.74-5.9Q126.64-2.75 122.74 0L122.74 0 111.09 0Q110.74-2.05 110.74-5.43 110.74-8.8 111.74-12.2L111.74-12.2Q115.34-13.25 118.67-15.75 121.99-18.25 123.49-21.15L123.49-21.15Q122.14-23.25 120.64-25L120.64-25 137.24-25Q142.19-14.25 142.19-0.4ZM128.84-9.55L128.84-9.55Q127.54-14 125.44-17.95L125.44-17.95Q123.09-11.05 122.74-4.9L122.74-4.9Q126.34-6.75 128.84-9.55ZM165.59-21.95L165.59-21.95Q163.84-22.25 162.22-22.25 160.59-22.25 158.29-21.7L158.29-21.7Q157.54-18.55 157.54-15.55L157.54-15.55Q157.54-7.8 164.44-3.65L164.44-3.65Q169.04-6.7 172.74-11.25L172.74-11.25Q172.89-9.25 172.99-5.15L172.99-5.15Q169.29-2.25 165.44-0.6 161.59 1.05 155.84 1.05L155.84 1.05 154.69 1.05Q150.19-0.9 147.62-4.7 145.04-8.5 145.04-12.7L145.04-12.7Q145.04-18.3 149.64-22.23 154.24-26.15 162.99-26.15L162.99-26.15Q167.89-26.15 173.24-24.9L173.24-24.9Q172.44-21.75 171.24-18.95L171.24-18.95Q168.09-18.65 164.74-18.65L164.74-18.65Q165.24-20.05 165.59-21.95ZM188.44-3.85Q190.79-3.3 192.94-3.3 195.09-3.3 196.36-4.28 197.64-5.25 198.24-7.65L198.24-7.65 204.24-7.45Q203.49-2.95 202.24 0L202.24 0 177.69 0Q176.74-6.4 176.74-13.25 176.74-20.1 177.44-25L177.44-25 191.84-25Q188.54-12.35 188.44-3.85L188.44-3.85ZM225.59-14.95L225.59-14.95 230.29-14.65Q230.99-14.65 231.34-14.7L231.34-14.7 228.99-10.3 228.54-10.3Q227.59-10.3 225.84-10.83 224.09-11.35 223.34-11.35L223.34-11.35Q221.29-11.35 220.09-8.7L220.09-8.7Q219.89-6.25 219.79-3.8L219.79-3.8Q222.39-3.3 223.89-3.3L223.89-3.3 224.34-3.3Q226.49-3.3 227.76-4.25 229.04-5.2 229.59-7.65L229.59-7.65 235.59-7.4Q234.84-3.1 233.59 0L233.59 0 209.04 0Q208.04-6.75 208.04-13.4 208.04-20.05 208.74-25L208.74-25 235.54-25Q234.64-19.6 233.94-17.4L233.94-17.4Q230.99-17.25 228.54-17.2L228.54-17.2Q228.94-18.35 228.94-19.35L228.94-19.35Q228.94-21.75 225.34-21.75L225.34-21.75Q223.99-21.75 222.34-21.45L222.34-21.45Q221.24-16.7 220.64-13.1L220.64-13.1Q222.64-14.95 225.59-14.95ZM262.03-0.15L262.03-0.15Q257.58-5.85 257.58-11.85 257.58-17.85 262.58-22 267.58-26.15 275.38-26.15L275.38-26.15Q279.53-26.15 283.63-24.9L283.63-24.9Q287.23-20.35 287.23-15.15L287.23-15.15Q287.23-8.6 281.88-3.75 276.53 1.1 268.93 1.1L268.93 1.1Q265.68 1.1 262.03-0.15ZM269.63-21.8L269.63-21.8Q267.88-18.8 267.88-14.75 267.88-10.7 269.66-7.28 271.43-3.85 274.53-2.35L274.53-2.35Q276.88-5.35 276.88-9.3 276.88-13.25 274.96-16.65 273.03-20.05 269.63-21.8ZM302.48-3.85Q304.83-3.3 306.98-3.3 309.13-3.3 310.4-4.28 311.68-5.25 312.28-7.65L312.28-7.65 318.28-7.45Q317.53-2.95 316.28 0L316.28 0 291.73 0Q290.78-6.4 290.78-13.25 290.78-20.1 291.48-25L291.48-25 305.88-25Q302.58-12.35 302.48-3.85L302.48-3.85ZM353.38-0.4L353.38-0.4 353.38 0 341.78 0Q341.58-2.85 340.93-5.9L340.93-5.9Q337.83-2.75 333.93 0L333.93 0 322.28 0Q321.93-2.05 321.93-5.43 321.93-8.8 322.93-12.2L322.93-12.2Q326.53-13.25 329.85-15.75 333.18-18.25 334.68-21.15L334.68-21.15Q333.33-23.25 331.83-25L331.83-25 348.43-25Q353.38-14.25 353.38-0.4ZM340.03-9.55L340.03-9.55Q338.73-14 336.63-17.95L336.63-17.95Q334.28-11.05 333.93-4.9L333.93-4.9Q337.53-6.75 340.03-9.55ZM370.07-26.15L370.07-26.15Q379.72-26.15 385.77-23.75L385.77-23.75Q387.92-19.45 387.92-15.05L387.92-15.05Q387.92-9.4 384.07-5.25L384.07-5.25Q378.47 0.7 368.92 0.7L368.92 0.7Q365.62 0.7 359.97-0.05L359.97-0.05Q358.02-10.1 358.02-18.6L358.02-18.6Q358.02-21.55 358.32-25L358.32-25Q366.37-26.15 370.07-26.15ZM371.57-22.4L371.57-22.4Q370.67-13 370.67-8.93 370.67-4.85 370.82-2.3L370.82-2.3Q373.52-3.75 375.05-7.18 376.57-10.6 376.57-14.13 376.57-17.65 375.3-19.9 374.02-22.15 371.57-22.4ZM424.72-0.4L424.72-0.4 424.72 0 413.12 0Q412.92-2.85 412.27-5.9L412.27-5.9Q409.17-2.75 405.27 0L405.27 0 393.62 0Q393.27-2.05 393.27-5.43 393.27-8.8 394.27-12.2L394.27-12.2Q397.87-13.25 401.2-15.75 404.52-18.25 406.02-21.15L406.02-21.15Q404.67-23.25 403.17-25L403.17-25 419.77-25Q424.72-14.25 424.72-0.4ZM411.37-9.55L411.37-9.55Q410.07-14 407.97-17.95L407.97-17.95Q405.62-11.05 405.27-4.9L405.27-4.9Q408.87-6.75 411.37-9.55ZM440.37-7.25L440.37-6.25Q440.37-3.4 440.62 0L440.62 0 429.62 0Q427.57-7.95 427.57-16.9L427.57-16.9Q427.57-21.45 428.12-25L428.12-25 455.22-25Q456.67-19.35 456.82-11.55L456.82-11.55Q449.42-8.25 440.37-7.25L440.37-7.25ZM440.42-10.7L440.42-10.7Q443.62-11.1 445.77-12.3L445.77-12.3Q444.97-17.6 441.47-21.7L441.47-21.7Q440.67-16.75 440.42-10.7ZM465.06-0.15L465.06-0.15Q460.62-5.85 460.62-11.85 460.62-17.85 465.62-22 470.62-26.15 478.42-26.15L478.42-26.15Q482.56-26.15 486.67-24.9L486.67-24.9Q490.27-20.35 490.27-15.15L490.27-15.15Q490.27-8.6 484.92-3.75 479.56 1.1 471.97 1.1L471.97 1.1Q468.72 1.1 465.06-0.15ZM472.67-21.8L472.67-21.8Q470.92-18.8 470.92-14.75 470.92-10.7 472.69-7.28 474.47-3.85 477.56-2.35L477.56-2.35Q479.92-5.35 479.92-9.3 479.92-13.25 477.99-16.65 476.06-20.05 472.67-21.8Z" opacity="1" transform="matrix(1,0,0,1,0,0)" fill="#ba3b0a" class="wordmark-text-0" data-fill-palette-color="primary" id="text-0"></path></svg></g></svg></g><g transform="matrix(1,0,0,1,0,12.273233097236439)"><svg viewBox="0 0 192 6.618988741044014" height="6.618988741044014" width="192"><g transform="matrix(1,0,0,1,0,0)"><svg width="192" viewBox="3 -33.5 986.25 34" height="6.618988741044014" data-palette-color="#e8772e"><path d="M14.1 0L3 0 3-0.8 6.95-2.8 8-30.15 3.7-32.2 3.7-33 12.95-33 24.5-6.4 36-33 44.8-33 44.8-32.2 40.6-30.2 41.45-2.8 44.95-0.8 44.95 0 33.45 0 33.45-0.8 37.15-2.75 36.65-27.4 24.7 0.25 22.45 0.25 10.7-27.05 10.05-2.75 14.1-0.8 14.1 0ZM500.18 0.25L500.18 0.25Q498.93 0.25 498.03-0.65 497.13-1.55 497.13-2.8L497.13-2.8Q497.13-4.05 498.03-4.95 498.93-5.85 500.18-5.85L500.18-5.85Q501.43-5.85 502.33-4.95 503.23-4.05 503.23-2.8L503.23-2.8Q503.23-1.55 502.33-0.65 501.43 0.25 500.18 0.25ZM972.55 0.5L972.55 0.5Q968.95 0.5 965.93-0.78 962.9-2.05 960.65-4.33 958.4-6.6 957.15-9.7 955.9-12.8 955.9-16.5L955.9-16.5Q955.9-20.2 957.15-23.3 958.4-26.4 960.65-28.68 962.9-30.95 965.93-32.23 968.95-33.5 972.55-33.5L972.55-33.5Q976.15-33.5 979.2-32.23 982.25-30.95 984.5-28.68 986.75-26.4 988-23.3 989.25-20.2 989.25-16.5L989.25-16.5Q989.25-12.8 988-9.7 986.75-6.6 984.5-4.33 982.25-2.05 979.2-0.78 976.15 0.5 972.55 0.5ZM973.6-2L973.6-2Q976.8-2 979.23-3.6 981.65-5.2 983.03-8.1 984.4-11 984.4-14.95L984.4-14.95Q984.4-19.8 982.7-23.43 981-27.05 978.13-29.05 975.25-31.05 971.7-31.05L971.7-31.05Q968.5-31.05 966.03-29.48 963.55-27.9 962.15-25 960.75-22.1 960.75-18.15L960.75-18.15Q960.75-13.3 962.48-9.65 964.2-6 967.1-4 970-2 973.6-2Z" opacity="1" transform="matrix(1,0,0,1,0,0)" fill="#e8772e" class="slogan-text-1" data-fill-palette-color="secondary" id="text-1"></path></svg></g></svg></g></svg></g></svg></g><g transform="matrix(1,0,0,1,72.88145692285102,0)"><svg viewBox="0 0 46.237086154297984 26.109050580503588" height="26.109050580503588" width="46.237086154297984"><g><svg xmlns="http://www.w3.org/2000/svg" xmlns:xlink="http://www.w3.org/1999/xlink" version="1.1" x="0" y="0" viewBox="0.3098016381263733 11.057000160217285 49.38319778442383 27.885589599609375" enable-background="new 0 0 50 50" xml:space="preserve" height="26.109050580503588" width="46.237086154297984" class="icon-icon-0" data-fill-palette-color="accent" id="icon-0"><g fill="#e8772e" data-fill-palette-color="accent"><rect x="13.624" y="14.722" transform="matrix(0.4683 0.8835 -0.8835 0.4683 34.8269 3.1334)" fill="#e8772e" width="2.371" height="31.568" data-fill-palette-color="accent"></rect><rect x="28.74" y="19.412" transform="matrix(-0.8836 0.4683 -0.4683 -0.8836 72.4396 23.1815)" fill="#e8772e" width="9.196" height="2.369" data-fill-palette-color="accent"></rect><polygon fill="#e8772e" points="30.934,16.045 31.838,16.072 32.637,16.501 32.943,15.648 33.596,15.021 32.879,14.467    32.484,13.65 31.736,14.162 30.84,14.284 31.094,15.154  " data-fill-palette-color="accent"></polygon><polygon fill="#e8772e" points="36.768,13.451 37.674,13.478 38.473,13.906 38.777,13.054 39.432,12.427 38.715,11.872    38.32,11.057 37.572,11.567 36.674,11.689 36.928,12.56  " data-fill-palette-color="accent"></polygon><polygon fill="#e8772e" points="44.416,12.273 43.668,12.785 42.77,12.906 43.023,13.776 42.863,14.668 43.77,14.695    44.568,15.123 44.873,14.271 45.527,13.644 44.811,13.089  " data-fill-palette-color="accent"></polygon><polygon fill="#e8772e" points="48.977,15.818 48.582,15.002 47.834,15.514 46.936,15.636 47.189,16.506 47.029,17.398    47.936,17.424 48.732,17.853 49.039,17 49.693,16.373  " data-fill-palette-color="accent"></polygon><polygon fill="#e8772e" points="42.344,16.371 41.594,16.882 40.695,17.004 40.951,17.875 40.789,18.767 41.695,18.793    42.494,19.221 42.799,18.369 43.453,17.741 42.736,17.188  " data-fill-palette-color="accent"></polygon><polygon fill="#e8772e" points="39.057,21.084 38.309,21.595 37.41,21.718 37.666,22.587 37.504,23.479 38.41,23.506    39.209,23.935 39.514,23.081 40.168,22.455 39.451,21.9  " data-fill-palette-color="accent"></polygon></g></svg></g></svg></g><g></g></svg></g></svg></g></svg></g></svg></g><defs></defs></svg><rect width="320" height="360" fill="none" stroke="none" visibility="hidden"></rect></g></svg></g></svg>